<?xml version="1.0" encoding="UTF-8" standalone="no"?>
<!-- Created with Inkscape (http://www.inkscape.org/) -->

<svg
   xmlns:dc="http://purl.org/dc/elements/1.1/"
   xmlns:cc="http://creativecommons.org/ns#"
   xmlns:rdf="http://www.w3.org/1999/02/22-rdf-syntax-ns#"
   xmlns:svg="http://www.w3.org/2000/svg"
   xmlns="http://www.w3.org/2000/svg"
   xmlns:xlink="http://www.w3.org/1999/xlink"
   xmlns:sodipodi="http://sodipodi.sourceforge.net/DTD/sodipodi-0.dtd"
   xmlns:inkscape="http://www.inkscape.org/namespaces/inkscape"
   width="1870.8661"
   height="1339.37"
   id="svg2"
   version="1.1"
   inkscape:version="0.48.2 r9819"
   sodipodi:docname="mac_template_black_and_white.svg">
  <defs
     id="defs4" />
  <sodipodi:namedview
     id="base"
     pagecolor="#ffffff"
     bordercolor="#666666"
     borderopacity="1.0"
     inkscape:pageopacity="0.0"
     inkscape:pageshadow="2"
     inkscape:zoom="0.48426769"
     inkscape:cx="850.76912"
     inkscape:cy="669.685"
     inkscape:document-units="cm"
     inkscape:current-layer="layer1"
     showgrid="false"
     units="cm"
     inkscape:showpageshadow="false"
     inkscape:window-width="1361"
     inkscape:window-height="856"
     inkscape:window-x="921"
     inkscape:window-y="50"
     inkscape:window-maximized="0"
     showguides="true"
     inkscape:guide-bbox="true" />
  <metadata
     id="metadata7">
    <rdf:RDF>
      <cc:Work
         rdf:about="">
        <dc:format>image/svg+xml</dc:format>
        <dc:type
           rdf:resource="http://purl.org/dc/dcmitype/StillImage" />
        <dc:title></dc:title>
      </cc:Work>
    </rdf:RDF>
  </metadata>
  <g
     inkscape:groupmode="layer"
     id="layer14"
     inkscape:label="bg"
     style="display:inline">
    <rect
       style="fill:#000000;fill-opacity:1;stroke:none"
       id="rect4126"
       width="1790.3322"
       height="1030.4219"
       x="49.559368"
       y="63.216305" />
  </g>
  <g
     inkscape:label="Layer 1"
     inkscape:groupmode="layer"
     id="layer1"
     transform="translate(0,287.00917)"
     style="display:inline"
     sodipodi:insensitive="true">
    <path
       style="fill:#000000;stroke:none"
       d="M 62.84375,-0.625 C 28.02089,-0.625 0,27.39589 0,62.21875 L 0,1279.375 c 0,34.8229 28.02089,62.8438 62.84375,62.8438 l 1748.59375,0 c 34.8229,0 62.8437,-28.0209 62.8437,-62.8438 l 0,-1217.15625 c 0,-34.82286 -28.0208,-62.84375 -62.8437,-62.84375 l -1748.59375,0 z M 93,94.75 l 1684.875,0 0,942.5625 -1684.875,0 L 93,94.75 z m 1139.6875,1048.875 5.7813,0 0,19.0312 c 1.3717,-2.0992 2.9937,-3.6794 4.8437,-4.7187 1.8707,-1.0393 4.0055,-1.5625 6.4375,-1.5625 4.0117,0 7.0671,1.2557 9.125,3.75 2.0578,2.4736 3.0625,6.1151 3.0625,10.9375 l 0,21.0937 -5.7187,0 0,-20.9062 c -2e-4,-3.305 -0.6488,-5.7642 -1.9376,-7.4062 -1.2886,-1.6422 -3.2351,-2.4688 -5.8124,-2.4688 -3.0973,0 -5.5249,0.994 -7.3126,2.9688 -1.7875,1.9746 -2.6876,4.6536 -2.6874,8.0624 l 0,19.75 -5.7813,0 0,-48.5312 z m 240.0937,0 5.7813,0 0,19.0312 c 1.3719,-2.0992 2.9625,-3.6794 4.8125,-4.7187 1.8707,-1.0393 4.0367,-1.5625 6.4688,-1.5625 4.0116,0 7.0358,1.2557 9.0937,3.75 2.0578,2.4736 3.0937,6.1151 3.0937,10.9375 l 0,21.0937 -5.75,0 0,-20.9062 c 0,-3.305 -0.6487,-5.7642 -1.9374,-7.4062 -1.2889,-1.6422 -3.2038,-2.4688 -5.7813,-2.4688 -3.0972,0 -5.5562,0.994 -7.3437,2.9688 -1.7878,1.9746 -2.6563,4.6536 -2.6563,8.0624 l 0,19.75 -5.7813,0 0,-48.5312 z m 40.75,0 5.75,0 0,7.2812 -5.75,0 0,-7.2812 z m -305.7812,3.6875 5.7812,0 0,9.9063 11.8126,0 0,4.4687 -11.8126,0 0,18.9687 c 0,2.8479 0.3872,4.6581 1.1563,5.4688 0.7899,0.8107 2.3596,1.2188 4.75,1.2188 l 5.9063,0 0,4.8124 -5.9063,0 c -4.4275,0 -7.4725,-0.8266 -9.1563,-2.4687 -1.6835,-1.6629 -2.5312,-4.666 -2.5312,-9.0313 l 0,-18.9687 -4.1875,0 0,-4.4687 4.1875,0 0,-9.9063 z m 204.9062,0 5.7813,0 0,9.9063 11.8125,0 0,4.4687 -11.8125,0 0,18.9687 c 0,2.8479 0.387,4.6581 1.1563,5.4688 0.7897,0.8107 2.3908,1.2188 4.7812,1.2188 l 5.875,0 0,4.8124 -5.875,0 c -4.4275,0 -7.5038,-0.8266 -9.1875,-2.4687 -1.6837,-1.6629 -2.5313,-4.666 -2.5313,-9.0313 l 0,-18.9687 -4.1874,0 0,-4.4687 4.1874,0 0,-9.9063 z m -1142.06245,3.5937 36.15625,0 0,92.625 -104.75,0 68.59375,-92.625 z m 1017.46875,5.4688 c 4.6977,0 8.4331,1.5277 11.1563,4.5625 2.7436,3.014 4.0937,7.116 4.0937,12.3125 l 0,2.8125 -26.375,0 c 0.2494,3.9494 1.4423,6.9525 3.5625,9.0313 2.141,2.0577 5.1024,3.0937 8.9062,3.0937 2.2035,0 4.3484,-0.2721 6.4063,-0.8125 2.0786,-0.5404 4.1191,-1.3566 6.1563,-2.4375 l 0,5.4375 c -2.058,0.873 -4.1507,1.5427 -6.3126,2 -2.1616,0.4573 -4.3696,0.6875 -6.5937,0.6875 -5.5707,0 -9.9866,-1.6324 -13.25,-4.875 -3.2427,-3.2426 -4.8439,-7.627 -4.8437,-13.1563 -2e-4,-5.716 1.5173,-10.2471 4.5937,-13.5937 3.0971,-3.3673 7.2619,-5.0625 12.5,-5.0625 z m 61.7187,0 c 4.2405,0 7.6726,1.6952 10.3126,5.0625 2.6604,3.3674 3.9998,7.7937 4,13.2813 -2e-4,5.4874 -1.3396,9.9138 -4,13.2812 -2.64,3.3674 -6.0721,5.0625 -10.3126,5.0625 -2.5566,0 -4.775,-0.5023 -6.625,-1.5 -1.8291,-1.0185 -3.3256,-2.5775 -4.5312,-4.6563 l 0,18.5313 -5.7812,0 0,-48.2187 5.7812,0 0,5.3124 c 1.2056,-2.0784 2.7021,-3.6271 4.5312,-4.625 1.8501,-1.0183 4.0684,-1.5312 6.625,-1.5312 z m 36.0626,0 c 5.0509,0 8.8493,1.3185 11.3437,3.9375 2.4943,2.6191 3.7187,6.5849 3.7187,11.9063 l 0,19.9374 -5.7187,0 0,-5.3124 c -1.3096,2.12 -2.9524,3.7002 -4.9063,4.7187 -1.9538,0.9977 -4.3293,1.5 -7.1562,1.5 -3.5752,0 -6.4423,-1.0045 -8.5625,-3 -2.0994,-2.0163 -3.1563,-4.7265 -3.1563,-8.0937 0,-3.9287 1.3185,-6.8797 3.9376,-8.875 2.6397,-1.9955 6.5638,-3 11.7812,-3 l 8.0625,0 0,-0.5626 c 0,-2.6397 -0.879,-4.6594 -2.625,-6.0937 -1.7253,-1.455 -4.1738,-2.1875 -7.3125,-2.1875 -1.9955,0 -3.921,0.2407 -5.8125,0.7188 -1.8916,0.478 -3.7227,1.2001 -5.4687,2.1562 l 0,-5.3125 c 2.0992,-0.8106 4.1501,-1.4175 6.125,-1.8125 1.9746,-0.4157 3.8791,-0.625 5.75,-0.625 z m 67.0312,0 c 1.7668,0 3.5038,0.1884 5.1875,0.5625 1.6837,0.3534 3.3265,0.8975 4.9063,1.625 l 0,5.375 c -1.6214,-0.8938 -3.2642,-1.5635 -4.9063,-2 -1.6213,-0.4573 -3.2746,-0.6875 -4.9375,-0.6875 -3.7207,0 -6.5985,1.1929 -8.6562,3.5625 -2.058,2.3489 -3.0938,5.645 -3.0938,9.9063 0,4.261 1.0359,7.5679 3.0938,9.9374 2.0577,2.349 4.9355,3.5313 8.6562,3.5313 1.6629,0 3.3162,-0.2197 4.9375,-0.6563 1.6421,-0.4571 3.2849,-1.1374 4.9063,-2.0312 l 0,5.3125 c -1.6007,0.7483 -3.2749,1.3133 -5,1.6875 -1.7046,0.3742 -3.5045,0.5625 -5.4376,0.5625 -5.2588,0 -9.4653,-1.6638 -12.5624,-4.9687 -3.0973,-3.3051 -4.6252,-7.7628 -4.625,-13.375 -2e-4,-5.6955 1.5383,-10.174 4.6562,-13.4376 3.1387,-3.2633 7.429,-4.9062 12.875,-4.9062 z m 95.2188,0 c 4.0116,0 7.0358,1.2557 9.0937,3.75 2.0578,2.4736 3.0937,6.1151 3.0937,10.9375 l 0,21.0937 -5.75,0 0,-20.9062 c 0,-3.305 -0.6487,-5.7642 -1.9374,-7.4062 -1.2889,-1.6422 -3.2038,-2.4688 -5.7813,-2.4688 -3.0972,0 -5.5562,0.994 -7.3437,2.9688 -1.7878,1.9746 -2.6876,4.6536 -2.6876,8.0624 l 0,19.75 -5.75,0 0,-34.9374 5.75,0 0,5.4374 c 1.372,-2.0992 2.9938,-3.6794 4.8438,-4.7187 1.8707,-1.0393 4.0367,-1.5625 6.4688,-1.5625 z m 35.4687,0 c 2.5775,0 4.8063,0.5129 6.6563,1.5312 1.8498,1.0187 3.3464,2.5672 4.5312,4.625 l 0,-5.3124 5.75,0 0,30.5937 c 0,5.9449 -1.3289,10.3607 -3.9688,13.25 -2.6397,2.9101 -6.6789,4.375 -12.125,4.375 -2.0161,0 -3.9311,-0.1571 -5.7187,-0.4687 -1.7876,-0.2912 -3.5038,-0.7515 -5.1875,-1.375 l 0,-5.5938 c 1.6837,0.9146 3.3266,1.5948 4.9688,2.0312 1.6419,0.4366 3.3267,0.6563 5.0312,0.6563 3.7623,0 6.5667,-0.9941 8.4375,-2.9687 1.8707,-1.9541 2.8125,-4.9049 2.8125,-8.875 l 0,-2.8438 c -1.1848,2.0578 -2.6813,3.6065 -4.5312,4.625 -1.8501,1.0185 -4.0788,1.5312 -6.6563,1.5312 -4.282,0 -7.7247,-1.6428 -10.3437,-4.9062 -2.6192,-3.2634 -3.9376,-7.5851 -3.9376,-12.9688 0,-5.4042 1.3185,-9.7364 3.9376,-13 2.6189,-3.2633 6.0617,-4.9062 10.3437,-4.9062 z m 96.1563,0 c 4.9885,0 8.9022,1.6324 11.75,4.875 2.8475,3.2427 4.2812,7.7317 4.2812,13.4688 0,5.7161 -1.4336,10.2053 -4.2812,13.4687 -2.8479,3.2426 -6.7615,4.875 -11.75,4.875 -5.0096,0 -8.9336,-1.6324 -11.7813,-4.875 -2.8269,-3.2634 -4.25,-7.7526 -4.25,-13.4687 0,-5.7371 1.4231,-10.2261 4.25,-13.4688 2.8477,-3.2426 6.7717,-4.875 11.7813,-4.875 z m 42.3437,0 c 4.0117,0 7.0359,1.2557 9.0937,3.75 2.058,2.4736 3.0938,6.1151 3.0938,10.9375 l 0,21.0937 -5.75,0 0,-20.9062 c 0,-3.305 -0.6175,-5.7642 -1.9062,-7.4062 -1.2889,-1.6422 -3.2351,-2.4688 -5.8126,-2.4688 -3.097,0 -5.5249,0.994 -7.3124,2.9688 -1.7878,1.9746 -2.6876,4.6536 -2.6876,8.0624 l 0,19.75 -5.7812,0 0,-34.9374 5.7812,0 0,5.4374 c 1.372,-2.0992 2.9626,-3.6794 4.8126,-4.7187 1.8706,-1.0393 4.0367,-1.5625 6.4687,-1.5625 z m 38.3125,0 c 4.6977,0 8.402,1.5277 11.125,4.5625 2.7437,3.014 4.125,7.116 4.125,12.3125 l 0,2.8125 -26.375,0 c 0.2494,3.9494 1.4423,6.9525 3.5625,9.0313 2.141,2.0577 5.1024,3.0937 8.9063,3.0937 2.2032,0 4.3483,-0.2721 6.4062,-0.8125 2.0786,-0.5404 4.1192,-1.3566 6.1562,-2.4375 l 0,5.4375 c -2.0577,0.873 -4.1507,1.5427 -6.3124,2 -2.1619,0.4573 -4.3697,0.6875 -6.5938,0.6875 -5.5707,0 -9.9866,-1.6324 -13.25,-4.875 -3.2427,-3.2426 -4.875,-7.627 -4.875,-13.1563 0,-5.716 1.5486,-10.2471 4.625,-13.5937 3.0971,-3.3673 7.2619,-5.0625 12.5,-5.0625 z m -246.8438,0.8438 5.75,0 0,34.9374 -5.75,0 0,-34.9374 z m 116.625,0 27.25,0 0,5.25 -21.5937,25.0937 21.5937,0 0,4.5937 -28.0312,0 0,-5.25 21.5625,-25.0937 -20.7813,0 0,-4.5937 z m -281.7812,3.9687 c -3.0348,0 -5.4103,1.2138 -7.1562,3.625 -1.7254,2.3904 -2.5938,5.6867 -2.5938,9.9063 0,4.2195 0.8684,7.5264 2.5938,9.9374 1.7459,2.3906 4.1214,3.5938 7.1562,3.5938 3.0348,0 5.4311,-1.2033 7.1562,-3.5938 1.7462,-2.411 2.5938,-5.7179 2.5938,-9.9374 0,-4.2197 -0.8477,-7.5159 -2.5938,-9.9063 -1.7251,-2.4112 -4.1214,-3.625 -7.1562,-3.625 z m 236.5938,0 c -3.0765,0 -5.4936,1.151 -7.2188,3.4375 -1.7045,2.2865 -2.5313,5.499 -2.5312,9.6562 -2e-4,4.1366 0.8267,7.3387 2.5312,9.625 1.7252,2.2866 4.1423,3.4376 7.2188,3.4376 3.097,0 5.483,-1.151 7.1874,-3.4376 1.7254,-2.2863 2.5938,-5.4884 2.5938,-9.625 0,-4.1571 -0.8685,-7.3697 -2.5938,-9.6562 -1.7043,-2.2865 -4.0903,-3.4375 -7.1874,-3.4375 z m -296.8438,0.062 c -3.2011,0 -5.7544,0.9103 -7.6875,2.7188 -1.9123,1.8083 -3.0215,4.3407 -3.3125,7.625 l 20.4688,-0.031 c -0.042,-3.1387 -0.9311,-5.6292 -2.6563,-7.5 -1.7045,-1.8707 -3.9856,-2.8125 -6.8125,-2.8125 z m 391.5938,0 c -3.0765,0 -5.4937,1.2138 -7.2813,3.625 -1.7876,2.3904 -2.6875,5.6656 -2.6875,9.8438 0,4.1779 0.8895,7.4637 2.6562,9.875 1.7877,2.3903 4.2154,3.5937 7.3126,3.5937 3.0554,0 5.4936,-1.2138 7.2812,-3.625 1.7876,-2.4112 2.6562,-5.6865 2.6562,-9.8437 0,-4.1366 -0.8686,-7.4012 -2.6562,-9.8126 -1.7876,-2.4318 -4.2257,-3.6562 -7.2812,-3.6562 z m 80.7187,0 c -3.2011,0 -5.7544,0.9103 -7.6875,2.7188 -1.9123,1.8083 -3.0215,4.3407 -3.3125,7.625 l 20.4375,-0.031 c -0.042,-3.1387 -0.8998,-5.6292 -2.625,-7.5 -1.7045,-1.8707 -3.9856,-2.8125 -6.8125,-2.8125 z m -370.9687,13.3438 c -4.6355,0 -7.8375,0.5336 -9.625,1.5937 -1.7878,1.0601 -2.6876,2.8808 -2.6876,5.4375 0,2.0371 0.6698,3.6382 2,4.8438 1.3512,1.1847 3.1615,1.7812 5.4688,1.7812 3.1803,0 5.7439,-1.1301 7.6562,-3.375 1.9332,-2.2657 2.9063,-5.2585 2.9063,-9 l 0,-1.2812 -5.7187,0 z m -1265.0938,0.3124 113.71875,0 -68.59375,92.625 -45.125,0 0,-92.625 z m 1424.7812,60.5313 c 2.1827,0 4.3906,0.199 6.6563,0.5937 2.2657,0.3951 4.5991,0.9915 6.9687,1.7813 l 0,6.125 c -2.3903,-1.1432 -4.661,-2.0012 -6.7812,-2.5625 -2.1202,-0.5612 -4.1816,-0.8436 -6.1562,-0.8438 -3.4299,2e-4 -6.0668,0.6699 -7.9376,2 -1.8498,1.3305 -2.7812,3.2347 -2.7812,5.6876 0,2.0577 0.6174,3.6275 1.8438,4.6874 1.247,1.0395 3.6119,1.8558 7.0624,2.5 l 3.7813,0.7813 c 4.6977,0.8938 8.1821,2.4843 10.4063,4.75 2.2447,2.2449 3.3437,5.2481 3.3437,9.0313 0,4.5105 -1.4965,7.9531 -4.5313,10.2812 -3.0139,2.3281 -7.4403,3.4686 -13.2812,3.4688 -2.2034,-2e-4 -4.5682,-0.2513 -7.0625,-0.75 -2.4736,-0.499 -5.0269,-1.2418 -7.6875,-2.2188 l 0,-6.4688 c 2.5567,1.4344 5.0472,2.5226 7.5,3.25 2.4528,0.7277 4.8804,1.0938 7.25,1.0938 3.596,0 6.3586,-0.7115 8.3125,-2.125 1.9539,-1.4135 2.9375,-3.4434 2.9375,-6.0625 0,-2.2865 -0.7116,-4.0551 -2.125,-5.3437 -1.3927,-1.2889 -3.7052,-2.2619 -6.9062,-2.9063 l -3.8126,-0.75 c -4.6975,-0.9354 -8.1193,-2.4108 -10.2187,-4.4063 -2.0994,-1.9953 -3.125,-4.7581 -3.125,-8.3124 0,-4.1158 1.4232,-7.3491 4.3125,-9.7188 2.9101,-2.3696 6.9386,-3.5625 12.0312,-3.5625 z m 26.25,0.8437 8.4688,0 20.625,38.9376 0,-38.9376 6.125,0 0,46.5313 -8.4688,0 -20.6562,-38.9375 0,38.9375 -6.0938,0 0,-46.5313 z m 47.75,0 6.3126,0 0,46.5313 -6.3126,0 0,-46.5313 z m 18.8438,0 6.2812,0 0,43.3126 c 0,5.6121 -1.0465,9.6828 -3.1874,12.2187 -2.1204,2.5359 -5.5628,3.7811 -10.2813,3.7813 l -2.4063,0 0,-5.2813 1.9688,0 c 2.7854,0 4.763,-0.7849 5.9062,-2.3437 1.1434,-1.5591 1.7188,-4.3426 1.7188,-8.375 l 0,-43.3126 z m 18.8125,0 6.3125,0 0,41.25 22.6562,0 0,5.2813 -28.9687,0 0,-46.5313 z m 49.0625,0 7.125,0 17.75,46.5313 -6.5312,0 -4.25,-11.9375 -21,0 -4.2188,11.9375 -6.6562,0 17.7812,-46.5313 z m 31.6562,0 16.0626,0 c 4.8014,2e-4 8.5266,0.9734 11.125,2.9688 2.5981,1.9955 3.8748,4.8522 3.875,8.5312 -2e-4,2.8479 -0.6698,5.0976 -2,6.7813 -1.3305,1.6837 -3.2663,2.7405 -5.8438,3.1563 3.0971,0.665 5.483,2.0674 7.1875,4.1874 1.7252,2.0996 2.5937,4.7156 2.5937,7.875 0,4.1574 -1.423,7.3906 -4.25,9.6563 -2.8268,2.2657 -6.8451,3.375 -12.0624,3.375 l -16.6876,0 0,-46.5313 z m 6.2813,5.1563 0,14.0313 9.3125,0 c 3.0763,0 5.3784,-0.5755 6.875,-1.7188 1.5174,-1.164 2.2812,-2.9117 2.2812,-5.2812 0,-2.349 -0.7638,-4.1172 -2.2812,-5.2813 -1.4966,-1.164 -3.7987,-1.75 -6.875,-1.75 l -9.3125,0 z m -34.375,1.0313 -8.5625,23.1874 17.125,0 -8.5625,-23.1874 z m 34.375,18.125 0,17.0624 10.0937,0 c 3.3883,2e-4 5.9099,-0.701 7.5313,-2.0937 1.6421,-1.4135 2.4687,-3.5795 2.4687,-6.4687 0,-2.9102 -0.8266,-5.0344 -2.4687,-6.4063 -1.6214,-1.3927 -4.1431,-2.0937 -7.5313,-2.0937 l -10.0937,0 z"
       transform="translate(0,-287.00917)"
       id="rect2987"
       inkscape:connector-curvature="0" />
    <flowRoot
       xml:space="preserve"
       id="flowRoot3797"
       style="font-size:40px;font-style:normal;font-variant:normal;font-weight:normal;font-stretch:normal;line-height:125%;letter-spacing:0px;word-spacing:0px;fill:#000000;fill-opacity:1;stroke:none;font-family:BrownPro;-inkscape-font-specification:BrownPro"
       transform="translate(0,-287.00917)"><flowRegion
         id="flowRegion3799"><rect
           id="rect3801"
           width="277.14285"
           height="62.857143"
           x="1120"
           y="1245.0842" /></flowRegion><flowPara
         id="flowPara3803" /></flowRoot>  </g>
  <g
     inkscape:groupmode="layer"
     id="layer2"
     inkscape:label="1.circle"
     style="display:none">
    <path
       sodipodi:type="arc"
       style="fill:#ffffff;stroke:none"
       id="path3815"
       sodipodi:cx="1244.2858"
       sodipodi:cy="740.79858"
       sodipodi:rx="287.14285"
       sodipodi:ry="287.14285"
       d="m 1531.4286,740.79858 a 287.14285,287.14285 0 1 1 -574.28569,0 287.14285,287.14285 0 1 1 574.28569,0 z"
       transform="matrix(1.2582603,0,0,1.2582603,-629.92105,-362.74744)" />
  </g>
  <g
     inkscape:groupmode="layer"
     id="layer3"
     inkscape:label="2.square"
     style="display:none">
    <rect
       style="fill:#ffffff;fill-opacity:1;stroke:none"
       id="rect4262"
       width="560.85632"
       height="560.85632"
       x="-5.2212334"
       y="799.98962"
       ry="34.871891"
       transform="matrix(0.70710678,-0.70710678,0.70710678,0.70710678,0,0)" />
    <rect
       transform="matrix(0.70710678,-0.70710678,0.70710678,0.70710678,0,0)"
       ry="15.344861"
       y="1112.381"
       x="600.92249"
       height="246.79655"
       width="246.79655"
       id="rect4275"
       style="fill:#ffffff;fill-opacity:1;stroke:none" />
  </g>
  <g
     inkscape:groupmode="layer"
     id="layer4"
     inkscape:label="3.ellipse"
     style="display:none">
    <path
       style="fill:#ffffff;stroke:none"
       d="m 488.59361,469.94183 c 2.42221,252.55306 207.87027,456.58956 460.99591,456.58956 253.12558,0 458.57358,-204.0365 460.99588,-456.58956 l -921.99179,0 z"
       id="path4277"
       inkscape:connector-curvature="0" />
    <rect
       style="fill:#ffffff;stroke:none"
       id="rect4282"
       width="922.85712"
       height="48.57143"
       x="488.28571"
       y="381.08429"
       ry="0" />
  </g>
  <g
     inkscape:groupmode="layer"
     id="layer5"
     inkscape:label="4.blob"
     style="display:none">
    <path
       sodipodi:type="arc"
       style="fill:#ffffff;fill-opacity:1;stroke:none"
       id="path5315"
       sodipodi:cx="272.85715"
       sodipodi:cy="266.51285"
       sodipodi:rx="58.57143"
       sodipodi:ry="58.57143"
       d="m 331.42858,266.51285 a 58.57143,58.57143 0 1 1 -117.14286,0 58.57143,58.57143 0 1 1 117.14286,0 z"
       inkscape:tile-cx="272.85715"
       inkscape:tile-cy="266.51285"
       inkscape:tile-w="117.14286"
       inkscape:tile-h="117.14286"
       inkscape:tile-x0="214.28572"
       inkscape:tile-y0="207.94142" />
    <use
       x="0"
       y="0"
       inkscape:tiled-clone-of="#path5315"
       xlink:href="#path5315"
       transform="translate(0,146.42858)"
       id="use5391"
       style="fill:#ffffff;fill-opacity:1;stroke:none"
       width="1870.8661"
       height="1339.37" />
    <use
       x="0"
       y="0"
       inkscape:tiled-clone-of="#path5315"
       xlink:href="#path5315"
       transform="translate(0,292.85715)"
       id="use5393"
       style="fill:#ffffff;fill-opacity:1;stroke:none"
       width="1870.8661"
       height="1339.37" />
    <use
       x="0"
       y="0"
       inkscape:tiled-clone-of="#path5315"
       xlink:href="#path5315"
       transform="translate(0,439.28573)"
       id="use5395"
       style="fill:#ffffff;fill-opacity:1;stroke:none"
       width="1870.8661"
       height="1339.37" />
    <use
       x="0"
       y="0"
       inkscape:tiled-clone-of="#path5315"
       xlink:href="#path5315"
       transform="translate(0,585.7143)"
       id="use5397"
       style="fill:#ffffff;fill-opacity:1;stroke:none"
       width="1870.8661"
       height="1339.37" />
    <use
       x="0"
       y="0"
       inkscape:tiled-clone-of="#path5315"
       xlink:href="#path5315"
       transform="translate(146.42858,1.1714286)"
       id="use5399"
       style="fill:#ffffff;fill-opacity:1;stroke:none"
       width="1870.8661"
       height="1339.37" />
    <use
       x="0"
       y="0"
       inkscape:tiled-clone-of="#path5315"
       xlink:href="#path5315"
       transform="translate(146.42858,147.6)"
       id="use5401"
       style="fill:#ffffff;fill-opacity:1;stroke:none"
       width="1870.8661"
       height="1339.37" />
    <use
       x="0"
       y="0"
       inkscape:tiled-clone-of="#path5315"
       xlink:href="#path5315"
       transform="translate(146.42858,294.02858)"
       id="use5403"
       style="fill:#ffffff;fill-opacity:1;stroke:none"
       width="1870.8661"
       height="1339.37" />
    <use
       x="0"
       y="0"
       inkscape:tiled-clone-of="#path5315"
       xlink:href="#path5315"
       transform="translate(146.42858,440.45716)"
       id="use5405"
       style="fill:#ffffff;fill-opacity:1;stroke:none"
       width="1870.8661"
       height="1339.37" />
    <use
       x="0"
       y="0"
       inkscape:tiled-clone-of="#path5315"
       xlink:href="#path5315"
       transform="translate(146.42858,586.88573)"
       id="use5407"
       style="fill:#ffffff;fill-opacity:1;stroke:none"
       width="1870.8661"
       height="1339.37" />
    <use
       x="0"
       y="0"
       inkscape:tiled-clone-of="#path5315"
       xlink:href="#path5315"
       transform="translate(292.85715,2.3428572)"
       id="use5409"
       style="fill:#ffffff;fill-opacity:1;stroke:none"
       width="1870.8661"
       height="1339.37" />
    <use
       x="0"
       y="0"
       inkscape:tiled-clone-of="#path5315"
       xlink:href="#path5315"
       transform="translate(292.85715,148.77143)"
       id="use5411"
       style="fill:#ffffff;fill-opacity:1;stroke:none"
       width="1870.8661"
       height="1339.37" />
    <use
       x="0"
       y="0"
       inkscape:tiled-clone-of="#path5315"
       xlink:href="#path5315"
       transform="translate(292.85715,295.20001)"
       id="use5413"
       style="fill:#ffffff;fill-opacity:1;stroke:none"
       width="1870.8661"
       height="1339.37" />
    <use
       x="0"
       y="0"
       inkscape:tiled-clone-of="#path5315"
       xlink:href="#path5315"
       transform="translate(292.85715,441.62858)"
       id="use5415"
       style="fill:#ffffff;fill-opacity:1;stroke:none"
       width="1870.8661"
       height="1339.37" />
    <use
       x="0"
       y="0"
       inkscape:tiled-clone-of="#path5315"
       xlink:href="#path5315"
       transform="translate(292.85715,588.05716)"
       id="use5417"
       style="fill:#ffffff;fill-opacity:1;stroke:none"
       width="1870.8661"
       height="1339.37" />
    <use
       x="0"
       y="0"
       inkscape:tiled-clone-of="#path5315"
       xlink:href="#path5315"
       transform="translate(439.28573,3.5142858)"
       id="use5419"
       style="fill:#ffffff;fill-opacity:1;stroke:none"
       width="1870.8661"
       height="1339.37" />
    <use
       x="0"
       y="0"
       inkscape:tiled-clone-of="#path5315"
       xlink:href="#path5315"
       transform="translate(439.28573,149.94286)"
       id="use5421"
       style="fill:#ffffff;fill-opacity:1;stroke:none"
       width="1870.8661"
       height="1339.37" />
    <use
       x="0"
       y="0"
       inkscape:tiled-clone-of="#path5315"
       xlink:href="#path5315"
       transform="translate(439.28573,296.37144)"
       id="use5423"
       style="fill:#ffffff;fill-opacity:1;stroke:none"
       width="1870.8661"
       height="1339.37" />
    <use
       x="0"
       y="0"
       inkscape:tiled-clone-of="#path5315"
       xlink:href="#path5315"
       transform="translate(439.28573,442.80001)"
       id="use5425"
       style="fill:#ffffff;fill-opacity:1;stroke:none"
       width="1870.8661"
       height="1339.37" />
    <use
       x="0"
       y="0"
       inkscape:tiled-clone-of="#path5315"
       xlink:href="#path5315"
       transform="translate(439.28573,589.22859)"
       id="use5427"
       style="fill:#ffffff;fill-opacity:1;stroke:none"
       width="1870.8661"
       height="1339.37" />
    <use
       x="0"
       y="0"
       inkscape:tiled-clone-of="#path5315"
       xlink:href="#path5315"
       transform="translate(585.7143,4.6857144)"
       id="use5429"
       style="fill:#ffffff;fill-opacity:1;stroke:none"
       width="1870.8661"
       height="1339.37" />
    <use
       x="0"
       y="0"
       inkscape:tiled-clone-of="#path5315"
       xlink:href="#path5315"
       transform="translate(585.7143,151.11429)"
       id="use5431"
       style="fill:#ffffff;fill-opacity:1;stroke:none"
       width="1870.8661"
       height="1339.37" />
    <use
       x="0"
       y="0"
       inkscape:tiled-clone-of="#path5315"
       xlink:href="#path5315"
       transform="translate(585.7143,297.54287)"
       id="use5433"
       style="fill:#ffffff;fill-opacity:1;stroke:none"
       width="1870.8661"
       height="1339.37" />
    <use
       x="0"
       y="0"
       inkscape:tiled-clone-of="#path5315"
       xlink:href="#path5315"
       transform="translate(585.7143,443.97144)"
       id="use5435"
       style="fill:#ffffff;fill-opacity:1;stroke:none"
       width="1870.8661"
       height="1339.37" />
    <use
       x="0"
       y="0"
       inkscape:tiled-clone-of="#path5315"
       xlink:href="#path5315"
       transform="translate(585.7143,590.40002)"
       id="use5437"
       style="fill:#ffffff;fill-opacity:1;stroke:none"
       width="1870.8661"
       height="1339.37" />
    <use
       x="0"
       y="0"
       inkscape:tiled-clone-of="#path5315"
       xlink:href="#path5315"
       transform="translate(732.14288,5.857143)"
       id="use5439"
       style="fill:#ffffff;fill-opacity:1;stroke:none"
       width="1870.8661"
       height="1339.37" />
    <use
       x="0"
       y="0"
       inkscape:tiled-clone-of="#path5315"
       xlink:href="#path5315"
       transform="translate(732.14288,152.28572)"
       id="use5441"
       style="fill:#ffffff;fill-opacity:1;stroke:none"
       width="1870.8661"
       height="1339.37" />
    <use
       x="0"
       y="0"
       inkscape:tiled-clone-of="#path5315"
       xlink:href="#path5315"
       transform="translate(732.14288,298.71429)"
       id="use5443"
       style="fill:#ffffff;fill-opacity:1;stroke:none"
       width="1870.8661"
       height="1339.37" />
    <use
       x="0"
       y="0"
       inkscape:tiled-clone-of="#path5315"
       xlink:href="#path5315"
       transform="translate(732.14288,445.14287)"
       id="use5445"
       style="fill:#ffffff;fill-opacity:1;stroke:none"
       width="1870.8661"
       height="1339.37" />
    <use
       x="0"
       y="0"
       inkscape:tiled-clone-of="#path5315"
       xlink:href="#path5315"
       transform="translate(732.14288,591.57145)"
       id="use5447"
       style="fill:#ffffff;fill-opacity:1;stroke:none"
       width="1870.8661"
       height="1339.37" />
    <use
       x="0"
       y="0"
       inkscape:tiled-clone-of="#path5315"
       xlink:href="#path5315"
       transform="translate(878.57145,7.0285716)"
       id="use5449"
       style="fill:#ffffff;fill-opacity:1;stroke:none"
       width="1870.8661"
       height="1339.37" />
    <use
       x="0"
       y="0"
       inkscape:tiled-clone-of="#path5315"
       xlink:href="#path5315"
       transform="translate(878.57145,153.45715)"
       id="use5451"
       style="fill:#ffffff;fill-opacity:1;stroke:none"
       width="1870.8661"
       height="1339.37" />
    <use
       x="0"
       y="0"
       inkscape:tiled-clone-of="#path5315"
       xlink:href="#path5315"
       transform="translate(878.57145,299.88572)"
       id="use5453"
       style="fill:#ffffff;fill-opacity:1;stroke:none"
       width="1870.8661"
       height="1339.37" />
    <use
       x="0"
       y="0"
       inkscape:tiled-clone-of="#path5315"
       xlink:href="#path5315"
       transform="translate(878.57145,446.3143)"
       id="use5455"
       style="fill:#ffffff;fill-opacity:1;stroke:none"
       width="1870.8661"
       height="1339.37" />
    <use
       x="0"
       y="0"
       inkscape:tiled-clone-of="#path5315"
       xlink:href="#path5315"
       transform="translate(878.57145,592.74287)"
       id="use5457"
       style="fill:#ffffff;fill-opacity:1;stroke:none"
       width="1870.8661"
       height="1339.37" />
    <use
       x="0"
       y="0"
       inkscape:tiled-clone-of="#path5315"
       xlink:href="#path5315"
       transform="translate(1025,8.2000002)"
       id="use5459"
       style="fill:#ffffff;fill-opacity:1;stroke:none"
       width="1870.8661"
       height="1339.37" />
    <use
       x="0"
       y="0"
       inkscape:tiled-clone-of="#path5315"
       xlink:href="#path5315"
       transform="translate(1025,154.62858)"
       id="use5461"
       style="fill:#ffffff;fill-opacity:1;stroke:none"
       width="1870.8661"
       height="1339.37" />
    <use
       x="0"
       y="0"
       inkscape:tiled-clone-of="#path5315"
       xlink:href="#path5315"
       transform="translate(1025,301.05715)"
       id="use5463"
       style="fill:#ffffff;fill-opacity:1;stroke:none"
       width="1870.8661"
       height="1339.37" />
    <use
       x="0"
       y="0"
       inkscape:tiled-clone-of="#path5315"
       xlink:href="#path5315"
       transform="translate(1025,447.48573)"
       id="use5465"
       style="fill:#ffffff;fill-opacity:1;stroke:none"
       width="1870.8661"
       height="1339.37" />
    <use
       x="0"
       y="0"
       inkscape:tiled-clone-of="#path5315"
       xlink:href="#path5315"
       transform="translate(1025,593.9143)"
       id="use5467"
       style="fill:#ffffff;fill-opacity:1;stroke:none"
       width="1870.8661"
       height="1339.37" />
    <use
       x="0"
       y="0"
       inkscape:tiled-clone-of="#path5315"
       xlink:href="#path5315"
       transform="translate(1171.4286,9.3714288)"
       id="use5469"
       style="fill:#ffffff;fill-opacity:1;stroke:none"
       width="1870.8661"
       height="1339.37" />
    <use
       x="0"
       y="0"
       inkscape:tiled-clone-of="#path5315"
       xlink:href="#path5315"
       transform="translate(1171.4286,155.8)"
       id="use5471"
       style="fill:#ffffff;fill-opacity:1;stroke:none"
       width="1870.8661"
       height="1339.37" />
    <use
       x="0"
       y="0"
       inkscape:tiled-clone-of="#path5315"
       xlink:href="#path5315"
       transform="translate(1171.4286,302.22858)"
       id="use5473"
       style="fill:#ffffff;fill-opacity:1;stroke:none"
       width="1870.8661"
       height="1339.37" />
    <use
       x="0"
       y="0"
       inkscape:tiled-clone-of="#path5315"
       xlink:href="#path5315"
       transform="translate(1171.4286,448.65716)"
       id="use5475"
       style="fill:#ffffff;fill-opacity:1;stroke:none"
       width="1870.8661"
       height="1339.37" />
    <use
       x="0"
       y="0"
       inkscape:tiled-clone-of="#path5315"
       xlink:href="#path5315"
       transform="translate(1171.4286,595.08573)"
       id="use5477"
       style="fill:#ffffff;fill-opacity:1;stroke:none"
       width="1870.8661"
       height="1339.37" />
    <use
       x="0"
       y="0"
       inkscape:tiled-clone-of="#path5315"
       xlink:href="#path5315"
       transform="translate(1317.8572,10.542857)"
       id="use5479"
       style="fill:#ffffff;fill-opacity:1;stroke:none"
       width="1870.8661"
       height="1339.37" />
    <use
       x="0"
       y="0"
       inkscape:tiled-clone-of="#path5315"
       xlink:href="#path5315"
       transform="translate(1317.8572,156.97143)"
       id="use5481"
       style="fill:#ffffff;fill-opacity:1;stroke:none"
       width="1870.8661"
       height="1339.37" />
    <use
       x="0"
       y="0"
       inkscape:tiled-clone-of="#path5315"
       xlink:href="#path5315"
       transform="translate(1317.8572,303.40001)"
       id="use5483"
       style="fill:#ffffff;fill-opacity:1;stroke:none"
       width="1870.8661"
       height="1339.37" />
    <use
       x="0"
       y="0"
       inkscape:tiled-clone-of="#path5315"
       xlink:href="#path5315"
       transform="translate(1317.8572,449.82858)"
       id="use5485"
       style="fill:#ffffff;fill-opacity:1;stroke:none"
       width="1870.8661"
       height="1339.37" />
    <use
       x="0"
       y="0"
       inkscape:tiled-clone-of="#path5315"
       xlink:href="#path5315"
       transform="translate(1317.8572,596.25716)"
       id="use5487"
       style="fill:#ffffff;fill-opacity:1;stroke:none"
       width="1870.8661"
       height="1339.37" />
  </g>
  <g
     inkscape:groupmode="layer"
     id="layer6"
     inkscape:label="5. horizontal stripes"
     style="display:none">
    <rect
       style="fill:#ffffff;fill-opacity:1;stroke:none"
       id="rect3825"
       width="72.409943"
       height="661.98596"
       x="254.30692"
       y="233.67688"
       ry="23.963293"
       inkscape:tile-cx="271.6766"
       inkscape:tile-cy="563.6557"
       inkscape:tile-w="69.06749"
       inkscape:tile-h="631.42859"
       inkscape:tile-x0="237.14285"
       inkscape:tile-y0="247.94141" />
    <use
       x="0"
       y="0"
       inkscape:tiled-clone-of="#rect3825"
       xlink:href="#rect3825"
       transform="translate(143.15446,2.8571422e-7)"
       id="use4001"
       style="fill:#ffffff;fill-opacity:1;stroke:none"
       width="1870.8661"
       height="1339.37" />
    <use
       x="0"
       y="0"
       inkscape:tiled-clone-of="#rect3825"
       xlink:href="#rect3825"
       transform="translate(286.30891,2.8571422e-7)"
       id="use4003"
       style="fill:#ffffff;fill-opacity:1;stroke:none"
       width="1870.8661"
       height="1339.37" />
    <use
       x="0"
       y="0"
       inkscape:tiled-clone-of="#rect3825"
       xlink:href="#rect3825"
       transform="translate(429.46338,2.8571422e-7)"
       id="use4005"
       style="fill:#ffffff;fill-opacity:1;stroke:none"
       width="1870.8661"
       height="1339.37" />
    <use
       x="0"
       y="0"
       inkscape:tiled-clone-of="#rect3825"
       xlink:href="#rect3825"
       transform="translate(572.61784,2.8571422e-7)"
       id="use4007"
       style="fill:#ffffff;fill-opacity:1;stroke:none"
       width="1870.8661"
       height="1339.37" />
    <use
       x="0"
       y="0"
       inkscape:tiled-clone-of="#rect3825"
       xlink:href="#rect3825"
       transform="translate(715.77229,2.8571422e-7)"
       id="use4009"
       style="fill:#ffffff;fill-opacity:1;stroke:none"
       width="1870.8661"
       height="1339.37" />
    <use
       x="0"
       y="0"
       inkscape:tiled-clone-of="#rect3825"
       xlink:href="#rect3825"
       transform="translate(858.92675,2.8571422e-7)"
       id="use4011"
       style="fill:#ffffff;fill-opacity:1;stroke:none"
       width="1870.8661"
       height="1339.37" />
    <use
       x="0"
       y="0"
       inkscape:tiled-clone-of="#rect3825"
       xlink:href="#rect3825"
       transform="translate(1002.0812,2.8571422e-7)"
       id="use4013"
       style="fill:#ffffff;fill-opacity:1;stroke:none"
       width="1870.8661"
       height="1339.37" />
    <use
       x="0"
       y="0"
       inkscape:tiled-clone-of="#rect3825"
       xlink:href="#rect3825"
       transform="translate(1145.2357,2.8571422e-7)"
       id="use4015"
       style="fill:#ffffff;fill-opacity:1;stroke:none"
       width="1870.8661"
       height="1339.37" />
    <use
       x="0"
       y="0"
       inkscape:tiled-clone-of="#rect3825"
       xlink:href="#rect3825"
       transform="translate(1288.3901,2.8571422e-7)"
       id="use4017"
       style="fill:#ffffff;fill-opacity:1;stroke:none"
       width="1870.8661"
       height="1339.37" />
  </g>
  <g
     inkscape:groupmode="layer"
     id="layer7"
     inkscape:label="6. vertical stripes"
     style="display:none">
    <rect
       style="fill:#ffffff;fill-opacity:1;stroke:none"
       id="rect4019"
       width="1469.2675"
       height="31.828545"
       x="208.37144"
       y="155.74144"
       ry="8.0894203"
       inkscape:tile-cx="943.00517"
       inkscape:tile-cy="163.65571"
       inkscape:tile-w="1469.2675"
       inkscape:tile-h="31.828545"
       inkscape:tile-x0="208.37144"
       inkscape:tile-y0="147.74144" />
    <use
       x="0"
       y="0"
       inkscape:tiled-clone-of="#rect4019"
       xlink:href="#rect4019"
       transform="translate(0,71.614225)"
       id="use4143"
       style="fill:#ffffff;fill-opacity:1;stroke:none"
       width="1870.8661"
       height="1339.37" />
    <use
       x="0"
       y="0"
       inkscape:tiled-clone-of="#rect4019"
       xlink:href="#rect4019"
       transform="translate(0,143.22845)"
       id="use4145"
       style="fill:#ffffff;fill-opacity:1;stroke:none"
       width="1870.8661"
       height="1339.37" />
    <use
       x="0"
       y="0"
       inkscape:tiled-clone-of="#rect4019"
       xlink:href="#rect4019"
       transform="translate(0,214.84268)"
       id="use4147"
       style="fill:#ffffff;fill-opacity:1;stroke:none"
       width="1870.8661"
       height="1339.37" />
    <use
       x="0"
       y="0"
       inkscape:tiled-clone-of="#rect4019"
       xlink:href="#rect4019"
       transform="translate(0,286.4569)"
       id="use4149"
       style="fill:#ffffff;fill-opacity:1;stroke:none"
       width="1870.8661"
       height="1339.37" />
    <use
       x="0"
       y="0"
       inkscape:tiled-clone-of="#rect4019"
       xlink:href="#rect4019"
       transform="translate(0,358.07113)"
       id="use4151"
       style="fill:#ffffff;fill-opacity:1;stroke:none"
       width="1870.8661"
       height="1339.37" />
    <use
       x="0"
       y="0"
       inkscape:tiled-clone-of="#rect4019"
       xlink:href="#rect4019"
       transform="translate(0,429.68535)"
       id="use4153"
       style="fill:#ffffff;fill-opacity:1;stroke:none"
       width="1870.8661"
       height="1339.37" />
    <use
       x="0"
       y="0"
       inkscape:tiled-clone-of="#rect4019"
       xlink:href="#rect4019"
       transform="translate(0,501.29958)"
       id="use4155"
       style="fill:#ffffff;fill-opacity:1;stroke:none"
       width="1870.8661"
       height="1339.37" />
    <use
       x="0"
       y="0"
       inkscape:tiled-clone-of="#rect4019"
       xlink:href="#rect4019"
       transform="translate(0,572.9138)"
       id="use4157"
       style="fill:#ffffff;fill-opacity:1;stroke:none"
       width="1870.8661"
       height="1339.37" />
    <use
       x="0"
       y="0"
       inkscape:tiled-clone-of="#rect4019"
       xlink:href="#rect4019"
       transform="translate(0,644.52803)"
       id="use4159"
       style="fill:#ffffff;fill-opacity:1;stroke:none"
       width="1870.8661"
       height="1339.37" />
    <use
       x="0"
       y="0"
       inkscape:tiled-clone-of="#rect4019"
       xlink:href="#rect4019"
       transform="translate(0,716.14225)"
       id="use4161"
       style="fill:#ffffff;fill-opacity:1;stroke:none"
       width="1870.8661"
       height="1339.37" />
    <use
       x="0"
       y="0"
       inkscape:tiled-clone-of="#rect4019"
       xlink:href="#rect4019"
       transform="translate(0,787.75648)"
       id="use4163"
       style="fill:#ffffff;fill-opacity:1;stroke:none"
       width="1870.8661"
       height="1339.37" />
  </g>
  <g
     inkscape:groupmode="layer"
     id="layer8"
     inkscape:label="7. many squares"
     style="display:none">
    <rect
       style="fill:#ffffff;fill-opacity:1;stroke:none"
       id="rect4165"
       width="151.42857"
       height="151.42857"
       x="248.57143"
       y="222.22714"
       ry="8.0894203" />
    <rect
       style="fill:#ffffff;fill-opacity:1;stroke:none"
       id="rect4167"
       width="257.14285"
       height="257.14285"
       x="511.42856"
       y="522.22711"
       ry="8.0894203" />
    <rect
       style="fill:#ffffff;fill-opacity:1;stroke:none"
       id="rect4169"
       width="137.14285"
       height="137.14285"
       x="785.71429"
       y="282.22714"
       ry="8.0894203" />
    <rect
       style="fill:#ffffff;fill-opacity:1;stroke:none"
       id="rect4171"
       width="271.42856"
       height="271.42856"
       x="1191.4286"
       y="185.08427"
       ry="8.0894203" />
    <rect
       style="fill:#ffffff;fill-opacity:1;stroke:none"
       id="rect4173"
       width="154.28572"
       height="154.28572"
       x="1065.7142"
       y="676.51288"
       ry="8.0894203" />
    <rect
       style="fill:#ffffff;fill-opacity:1;stroke:none"
       id="rect4175"
       width="340"
       height="340"
       x="1362.8572"
       y="607.94141"
       ry="8.0894203" />
    <rect
       style="fill:#ffffff;fill-opacity:1;stroke:none"
       id="rect4177"
       width="128.57143"
       height="128.57143"
       x="208.57143"
       y="827.94141"
       ry="8.0894203" />
  </g>
  <g
     inkscape:groupmode="layer"
     id="layer9"
     inkscape:label="8. many circles"
     style="display:none">
    <path
       sodipodi:type="arc"
       style="fill:#ffffff;stroke:none"
       id="path4179"
       sodipodi:cx="342.85715"
       sodipodi:cy="336.51285"
       sodipodi:rx="88.571426"
       sodipodi:ry="88.571426"
       d="m 431.42857,336.51285 a 88.571426,88.571426 0 1 1 -177.14285,0 88.571426,88.571426 0 1 1 177.14285,0 z" />
    <path
       sodipodi:type="arc"
       style="fill:#ffffff;stroke:none"
       id="path4181"
       sodipodi:cx="684.28571"
       sodipodi:cy="840.79858"
       sodipodi:rx="158.57143"
       sodipodi:ry="158.57143"
       d="m 842.85713,840.79858 a 158.57143,158.57143 0 1 1 -317.14285,0 158.57143,158.57143 0 1 1 317.14285,0 z"
       transform="matrix(0.70362984,0,0,0.70362984,275.65901,199.18761)" />
    <path
       sodipodi:type="arc"
       style="fill:#ffffff;stroke:none"
       id="path4183"
       sodipodi:cx="692.85712"
       sodipodi:cy="472.22714"
       sodipodi:rx="70"
       sodipodi:ry="70"
       d="m 762.85712,472.22714 a 70,70 0 1 1 -140,0 70,70 0 1 1 140,0 z" />
    <path
       sodipodi:type="arc"
       style="fill:#ffffff;stroke:none"
       id="path4185"
       sodipodi:cx="1168.5714"
       sodipodi:cy="467.94144"
       sodipodi:rx="188.57143"
       sodipodi:ry="188.57143"
       d="m 1357.1428,467.94144 a 188.57143,188.57143 0 1 1 -377.14282,0 188.57143,188.57143 0 1 1 377.14282,0 z"
       transform="matrix(1.2342323,0,0,1.2342323,-229.43146,-153.89272)" />
    <path
       sodipodi:type="arc"
       style="fill:#ffffff;stroke:none"
       id="path4187"
       sodipodi:cx="1190"
       sodipodi:cy="840.79858"
       sodipodi:rx="55.714287"
       sodipodi:ry="55.714287"
       d="m 1245.7143,840.79858 a 55.714287,55.714287 0 1 1 -111.4286,0 55.714287,55.714287 0 1 1 111.4286,0 z"
       transform="matrix(0.59336416,0,0,0.59336416,461.03951,364.75598)" />
    <path
       sodipodi:type="arc"
       style="fill:#ffffff;stroke:none"
       id="path4193"
       sodipodi:cx="1630"
       sodipodi:cy="512.22711"
       sodipodi:rx="130"
       sodipodi:ry="130"
       d="m 1760,512.22711 a 130,130 0 1 1 -260,0 130,130 0 1 1 260,0 z" />
    <path
       sodipodi:type="arc"
       style="fill:#ffffff;stroke:none"
       id="path4195"
       sodipodi:cx="1581.4286"
       sodipodi:cy="826.51288"
       sodipodi:rx="138.57143"
       sodipodi:ry="138.57143"
       d="m 1720,826.51288 a 138.57143,138.57143 0 1 1 -277.1428,0 138.57143,138.57143 0 1 1 277.1428,0 z" />
    <path
       sodipodi:type="arc"
       style="fill:#ffffff;stroke:none"
       id="path4197"
       sodipodi:cx="817.14288"
       sodipodi:cy="276.51285"
       sodipodi:rx="100"
       sodipodi:ry="100"
       d="m 917.14288,276.51285 a 100,100 0 1 1 -200,0 100,100 0 1 1 200,0 z" />
    <path
       sodipodi:type="arc"
       style="fill:#ffffff;stroke:none"
       id="path4199"
       sodipodi:cx="352.85715"
       sodipodi:cy="749.37"
       sodipodi:rx="198.57143"
       sodipodi:ry="198.57143"
       d="m 551.42857,749.37 a 198.57143,198.57143 0 1 1 -397.14285,0 198.57143,198.57143 0 1 1 397.14285,0 z" />
  </g>
  <g
     inkscape:groupmode="layer"
     id="layer10"
     inkscape:label="9. triangle"
     style="display:none">
    <path
       sodipodi:type="star"
       style="fill:#ffffff;fill-opacity:1;stroke:none"
       id="path4208"
       sodipodi:sides="3"
       sodipodi:cx="554.28571"
       sodipodi:cy="307.94141"
       sodipodi:r1="446.16278"
       sodipodi:r2="223.08139"
       sodipodi:arg1="0.52359878"
       sodipodi:arg2="1.5707963"
       inkscape:flatsided="false"
       inkscape:rounded="-1.4224733e-16"
       inkscape:randomized="0"
       d="m 940.67401,531.0228 -386.3883,0 -386.38831,-10e-6 193.19415,-334.62207 193.19416,-334.62209 193.19414,334.62208 z"
       inkscape:transform-center-y="-132.91333"
       transform="matrix(1.2363491,0,0,1.1916129,286.13794,323.84762)" />
  </g>
  <g
     inkscape:groupmode="layer"
     id="layer11"
     inkscape:label="10. triangle 2"
     style="display:none">
    <path
       style="fill:#ffffff;stroke:none"
       d="M 1777.1429,93.655709 91.428571,1036.5129 l 0,-942.857191 z"
       id="path4211"
       inkscape:connector-curvature="0" />
  </g>
  <g
     inkscape:groupmode="layer"
     id="layer12"
     inkscape:label="11. pentagon"
     style="display:none">
    <path
       sodipodi:type="star"
       style="fill:#ffffff;stroke:none"
       id="path4228"
       sodipodi:sides="5"
       sodipodi:cx="771.42859"
       sodipodi:cy="450.79858"
       sodipodi:r1="291.03616"
       sodipodi:r2="237.55495"
       sodipodi:arg1="0.75762753"
       sodipodi:arg2="1.4093981"
       inkscape:flatsided="false"
       inkscape:rounded="-1.4224733e-16"
       inkscape:randomized="0.004"
       d="M 981.80966,651.66323 809.19469,684.33675 646.45004,714.42409 559.65478,559.5791 482.13033,413.16573 l 119.91026,-128.643 115.61856,-118.72538 160.00365,73.70577 148.8451,72.764 -19.9925,174.83357 z"
       inkscape:transform-center-x="0.49707918"
       inkscape:transform-center-y="-23.199771"
       transform="matrix(0.8519051,0.15983469,-0.15983469,0.8519051,-85.770795,-20.989761)" />
    <path
       transform="matrix(0.78104534,-0.37584255,0.37584255,0.78104534,161.02452,561.95218)"
       inkscape:transform-center-y="23.958518"
       inkscape:transform-center-x="0.14420687"
       d="M 981.80966,651.66323 809.19469,684.33675 646.45004,714.42409 559.65478,559.5791 482.13033,413.16573 l 119.91026,-128.643 115.61856,-118.72538 160.00365,73.70577 148.8451,72.764 -19.9925,174.83357 z"
       inkscape:randomized="0.004"
       inkscape:rounded="-1.4224733e-16"
       inkscape:flatsided="false"
       sodipodi:arg2="1.4093981"
       sodipodi:arg1="0.75762753"
       sodipodi:r2="237.55495"
       sodipodi:r1="291.03616"
       sodipodi:cy="450.79858"
       sodipodi:cx="771.42859"
       sodipodi:sides="5"
       id="path4256"
       style="fill:#ffffff;stroke:none"
       sodipodi:type="star" />
    <path
       transform="matrix(0.8519051,0.15983469,-0.15983469,0.8519051,778.12415,-21.654125)"
       inkscape:transform-center-y="-23.19977"
       inkscape:transform-center-x="0.49707394"
       d="M 981.80966,651.66323 809.19469,684.33675 646.45004,714.42409 559.65478,559.5791 482.13033,413.16573 l 119.91026,-128.643 115.61856,-118.72538 160.00365,73.70577 148.8451,72.764 -19.9925,174.83357 z"
       inkscape:randomized="0.004"
       inkscape:rounded="-1.4224733e-16"
       inkscape:flatsided="false"
       sodipodi:arg2="1.4093981"
       sodipodi:arg1="0.75762753"
       sodipodi:r2="237.55495"
       sodipodi:r1="291.03616"
       sodipodi:cy="450.79858"
       sodipodi:cx="771.42859"
       sodipodi:sides="5"
       id="path4258"
       style="fill:#ffffff;stroke:none"
       sodipodi:type="star" />
  </g>
  <g
     inkscape:groupmode="layer"
     id="layer13"
     inkscape:label="12. cosa rara"
     style="display:none">
    <path
       style="fill:#ffffff;stroke:none"
       d="m 328.5625,479.375 c -63.11826,0 -114.28125,51.16299 -114.28125,114.28125 0,63.11826 51.16299,114.28125 114.28125,114.28125 41.19576,0 77.29566,-21.81022 97.40625,-54.5 l 1001.18745,0 c 20.1093,32.6958 56.206,54.5 97.4063,54.5 63.1183,0 114.2813,-51.16299 114.2813,-114.28125 -1e-4,-63.11826 -51.163,-114.28125 -114.2813,-114.28125 -43.847,0 -81.8969,24.69969 -101.0625,60.9375 l -993.84375,0 C 410.49167,504.0714 372.41188,479.375 328.5625,479.375 z"
       id="rect5306"
       inkscape:connector-curvature="0" />
  </g>
</svg>
